<mxfile host="app.diagrams.net" modified="2020-08-19T12:38:54.803Z" agent="5.0 (Macintosh; Intel Mac OS X 10_15_5) AppleWebKit/537.36 (KHTML, like Gecko) Chrome/84.0.4147.125 Safari/537.36" etag="8LMmKZhmJX4_WpxoUV2x" version="13.6.2" type="github">
  <diagram id="C5RBs43oDa-KdzZeNtuy" name="Page-1">
    <mxGraphModel dx="2610" dy="2162" grid="1" gridSize="10" guides="1" tooltips="1" connect="1" arrows="1" fold="1" page="1" pageScale="1" pageWidth="827" pageHeight="1169" math="0" shadow="0">
      <root>
        <mxCell id="WIyWlLk6GJQsqaUBKTNV-0" />
        <mxCell id="WIyWlLk6GJQsqaUBKTNV-1" parent="WIyWlLk6GJQsqaUBKTNV-0" />
        <mxCell id="NJ1YffycrJ7vE85gbGto-49" value="" style="endArrow=block;html=1;strokeWidth=1;edgeStyle=elbowEdgeStyle;elbow=vertical;endFill=0;endSize=15;exitX=0.571;exitY=0;exitDx=0;exitDy=0;exitPerimeter=0;entryX=0.214;entryY=1.036;entryDx=0;entryDy=0;entryPerimeter=0;fontSize=15;" edge="1" parent="WIyWlLk6GJQsqaUBKTNV-1" source="NJ1YffycrJ7vE85gbGto-55" target="NJ1YffycrJ7vE85gbGto-25">
          <mxGeometry width="50" height="50" relative="1" as="geometry">
            <mxPoint x="690" y="653" as="sourcePoint" />
            <mxPoint x="740" y="581" as="targetPoint" />
            <Array as="points">
              <mxPoint x="710" y="578" />
            </Array>
          </mxGeometry>
        </mxCell>
        <mxCell id="NJ1YffycrJ7vE85gbGto-50" value="" style="endArrow=none;html=1;strokeWidth=1;edgeStyle=elbowEdgeStyle;elbow=vertical;exitX=0.436;exitY=-0.017;exitDx=0;exitDy=0;exitPerimeter=0;fontSize=15;" edge="1" parent="WIyWlLk6GJQsqaUBKTNV-1" source="NJ1YffycrJ7vE85gbGto-51">
          <mxGeometry width="50" height="50" relative="1" as="geometry">
            <mxPoint x="819.98" y="638" as="sourcePoint" />
            <mxPoint x="740" y="570" as="targetPoint" />
            <Array as="points">
              <mxPoint x="800.02" y="578" />
              <mxPoint x="780.02" y="598" />
            </Array>
          </mxGeometry>
        </mxCell>
        <mxCell id="NJ1YffycrJ7vE85gbGto-59" value="{Mandatory, Or}" style="edgeLabel;html=1;align=center;verticalAlign=middle;resizable=0;points=[];fontSize=15;" vertex="1" connectable="0" parent="NJ1YffycrJ7vE85gbGto-50">
          <mxGeometry x="0.9252" relative="1" as="geometry">
            <mxPoint y="-25.96" as="offset" />
          </mxGeometry>
        </mxCell>
        <mxCell id="NJ1YffycrJ7vE85gbGto-60" value="" style="endArrow=block;html=1;strokeWidth=1;edgeStyle=elbowEdgeStyle;elbow=vertical;endFill=0;endSize=15;exitX=0.464;exitY=1.069;exitDx=0;exitDy=0;exitPerimeter=0;entryX=0.607;entryY=0;entryDx=0;entryDy=0;entryPerimeter=0;fontSize=15;" edge="1" parent="WIyWlLk6GJQsqaUBKTNV-1" source="NJ1YffycrJ7vE85gbGto-65" target="NJ1YffycrJ7vE85gbGto-14">
          <mxGeometry width="50" height="50" relative="1" as="geometry">
            <mxPoint x="574" y="36.99000000000001" as="sourcePoint" />
            <mxPoint x="658" y="138" as="targetPoint" />
            <Array as="points">
              <mxPoint x="625" y="78" />
            </Array>
          </mxGeometry>
        </mxCell>
        <mxCell id="NJ1YffycrJ7vE85gbGto-61" value="" style="endArrow=none;html=1;strokeWidth=1;edgeStyle=elbowEdgeStyle;elbow=vertical;exitX=0.536;exitY=1.077;exitDx=0;exitDy=0;exitPerimeter=0;entryX=0.607;entryY=0;entryDx=0;entryDy=0;entryPerimeter=0;fontSize=15;" edge="1" parent="WIyWlLk6GJQsqaUBKTNV-1" source="NJ1YffycrJ7vE85gbGto-70" target="NJ1YffycrJ7vE85gbGto-14">
          <mxGeometry width="50" height="50" relative="1" as="geometry">
            <mxPoint x="715" y="38" as="sourcePoint" />
            <mxPoint x="660" y="100" as="targetPoint" />
            <Array as="points">
              <mxPoint x="705" y="78" />
            </Array>
          </mxGeometry>
        </mxCell>
        <mxCell id="NJ1YffycrJ7vE85gbGto-62" value="{Optional, Or}" style="edgeLabel;html=1;align=center;verticalAlign=middle;resizable=0;points=[];fontSize=15;" vertex="1" connectable="0" parent="NJ1YffycrJ7vE85gbGto-61">
          <mxGeometry x="0.9252" relative="1" as="geometry">
            <mxPoint x="-4.980000000000004" y="-40.69" as="offset" />
          </mxGeometry>
        </mxCell>
        <mxCell id="NJ1YffycrJ7vE85gbGto-55" value="FulltimePermanent" style="swimlane;fontStyle=0;childLayout=stackLayout;horizontal=1;startSize=26;fillColor=none;horizontalStack=0;resizeParent=1;resizeParentMax=0;resizeLast=0;collapsible=1;marginBottom=0;fontSize=15;" vertex="1" parent="WIyWlLk6GJQsqaUBKTNV-1">
          <mxGeometry x="610" y="618" width="160" height="52" as="geometry" />
        </mxCell>
        <mxCell id="NJ1YffycrJ7vE85gbGto-56" value="AnnuallySalary" style="text;strokeColor=none;fillColor=none;align=left;verticalAlign=top;spacingLeft=4;spacingRight=4;overflow=hidden;rotatable=0;points=[[0,0.5],[1,0.5]];portConstraint=eastwest;fontSize=15;" vertex="1" parent="NJ1YffycrJ7vE85gbGto-55">
          <mxGeometry y="26" width="160" height="26" as="geometry" />
        </mxCell>
        <mxCell id="NJ1YffycrJ7vE85gbGto-76" value="" style="endArrow=none;html=1;strokeWidth=1;fontSize=15;exitX=1.007;exitY=0.188;exitDx=0;exitDy=0;exitPerimeter=0;edgeStyle=orthogonalEdgeStyle;" edge="1" parent="WIyWlLk6GJQsqaUBKTNV-1" source="NJ1YffycrJ7vE85gbGto-20">
          <mxGeometry width="50" height="50" relative="1" as="geometry">
            <mxPoint x="480" y="460" as="sourcePoint" />
            <mxPoint x="650" y="242" as="targetPoint" />
            <Array as="points">
              <mxPoint x="560" y="468" />
              <mxPoint x="560" y="240" />
              <mxPoint x="630" y="240" />
              <mxPoint x="630" y="242" />
            </Array>
          </mxGeometry>
        </mxCell>
        <mxCell id="NJ1YffycrJ7vE85gbGto-77" value="&lt;font style=&quot;font-size: 17px&quot;&gt;Borrow&lt;/font&gt;" style="edgeLabel;html=1;align=center;verticalAlign=middle;resizable=0;points=[];fontSize=15;" vertex="1" connectable="0" parent="NJ1YffycrJ7vE85gbGto-76">
          <mxGeometry x="-0.2891" relative="1" as="geometry">
            <mxPoint x="-13.98" y="-17.92" as="offset" />
          </mxGeometry>
        </mxCell>
        <mxCell id="NJ1YffycrJ7vE85gbGto-84" value="&lt;font style=&quot;font-size: 17px&quot;&gt;0..*&lt;/font&gt;" style="edgeLabel;html=1;align=center;verticalAlign=middle;resizable=0;points=[];fontSize=15;" vertex="1" connectable="0" parent="NJ1YffycrJ7vE85gbGto-76">
          <mxGeometry x="0.9604" y="-2" relative="1" as="geometry">
            <mxPoint x="-21.08" y="8.99" as="offset" />
          </mxGeometry>
        </mxCell>
        <mxCell id="NJ1YffycrJ7vE85gbGto-85" value="&lt;font style=&quot;font-size: 17px&quot;&gt;0..*&lt;/font&gt;" style="edgeLabel;html=1;align=center;verticalAlign=middle;resizable=0;points=[];fontSize=15;" vertex="1" connectable="0" parent="NJ1YffycrJ7vE85gbGto-76">
          <mxGeometry x="-0.9479" y="2" relative="1" as="geometry">
            <mxPoint y="-13.94" as="offset" />
          </mxGeometry>
        </mxCell>
        <mxCell id="NJ1YffycrJ7vE85gbGto-78" value="" style="endArrow=none;dashed=1;html=1;dashPattern=1 3;strokeWidth=2;fontSize=15;entryX=0.593;entryY=0.01;entryDx=0;entryDy=0;entryPerimeter=0;" edge="1" parent="WIyWlLk6GJQsqaUBKTNV-1" target="NJ1YffycrJ7vE85gbGto-79">
          <mxGeometry width="50" height="50" relative="1" as="geometry">
            <mxPoint x="410" y="460" as="sourcePoint" />
            <mxPoint x="400" y="400" as="targetPoint" />
          </mxGeometry>
        </mxCell>
        <mxCell id="NJ1YffycrJ7vE85gbGto-88" value="" style="endArrow=none;html=1;strokeWidth=1;fontSize=15;exitX=0.993;exitY=0.354;exitDx=0;exitDy=0;exitPerimeter=0;entryX=-0.021;entryY=0.846;entryDx=0;entryDy=0;entryPerimeter=0;edgeStyle=orthogonalEdgeStyle;" edge="1" parent="WIyWlLk6GJQsqaUBKTNV-1" source="NJ1YffycrJ7vE85gbGto-12" target="NJ1YffycrJ7vE85gbGto-16">
          <mxGeometry width="50" height="50" relative="1" as="geometry">
            <mxPoint x="364" y="210" as="sourcePoint" />
            <mxPoint x="414" y="160" as="targetPoint" />
          </mxGeometry>
        </mxCell>
        <mxCell id="NJ1YffycrJ7vE85gbGto-89" value="&lt;font style=&quot;font-size: 17px&quot;&gt;1..*&lt;/font&gt;" style="edgeLabel;html=1;align=center;verticalAlign=middle;resizable=0;points=[];fontSize=15;" vertex="1" connectable="0" parent="NJ1YffycrJ7vE85gbGto-88">
          <mxGeometry x="0.9424" y="2" relative="1" as="geometry">
            <mxPoint x="-3.12" y="-12" as="offset" />
          </mxGeometry>
        </mxCell>
        <mxCell id="NJ1YffycrJ7vE85gbGto-90" value="&lt;font style=&quot;font-size: 17px&quot;&gt;1..1&lt;/font&gt;" style="edgeLabel;html=1;align=center;verticalAlign=middle;resizable=0;points=[];fontSize=15;" vertex="1" connectable="0" parent="NJ1YffycrJ7vE85gbGto-88">
          <mxGeometry x="-0.0864" y="-207" relative="1" as="geometry">
            <mxPoint x="7" y="-26.52" as="offset" />
          </mxGeometry>
        </mxCell>
        <mxCell id="NJ1YffycrJ7vE85gbGto-139" value="&lt;font style=&quot;font-size: 17px&quot;&gt;Own&lt;/font&gt;" style="edgeLabel;html=1;align=center;verticalAlign=middle;resizable=0;points=[];fontSize=15;" vertex="1" connectable="0" parent="NJ1YffycrJ7vE85gbGto-88">
          <mxGeometry x="-0.2547" relative="1" as="geometry">
            <mxPoint x="12.23" y="-16.25" as="offset" />
          </mxGeometry>
        </mxCell>
        <mxCell id="NJ1YffycrJ7vE85gbGto-95" value="" style="endArrow=none;html=1;strokeWidth=1;fontSize=15;entryX=0.143;entryY=1.004;entryDx=0;entryDy=0;entryPerimeter=0;exitX=0.207;exitY=0;exitDx=0;exitDy=0;exitPerimeter=0;" edge="1" parent="WIyWlLk6GJQsqaUBKTNV-1" source="NJ1YffycrJ7vE85gbGto-18" target="NJ1YffycrJ7vE85gbGto-12">
          <mxGeometry width="50" height="50" relative="1" as="geometry">
            <mxPoint x="320" y="350" as="sourcePoint" />
            <mxPoint x="370" y="300" as="targetPoint" />
          </mxGeometry>
        </mxCell>
        <mxCell id="NJ1YffycrJ7vE85gbGto-96" value="&lt;font style=&quot;font-size: 17px&quot;&gt;0..*&lt;/font&gt;" style="edgeLabel;html=1;align=center;verticalAlign=middle;resizable=0;points=[];fontSize=15;" vertex="1" connectable="0" parent="NJ1YffycrJ7vE85gbGto-95">
          <mxGeometry x="-0.6219" relative="1" as="geometry">
            <mxPoint x="-18.41" y="4.99" as="offset" />
          </mxGeometry>
        </mxCell>
        <mxCell id="NJ1YffycrJ7vE85gbGto-97" value="&lt;font style=&quot;font-size: 17px&quot;&gt;1..1&lt;/font&gt;" style="edgeLabel;html=1;align=center;verticalAlign=middle;resizable=0;points=[];fontSize=15;" vertex="1" connectable="0" parent="NJ1YffycrJ7vE85gbGto-95">
          <mxGeometry x="0.7976" relative="1" as="geometry">
            <mxPoint x="-19.91" as="offset" />
          </mxGeometry>
        </mxCell>
        <mxCell id="NJ1YffycrJ7vE85gbGto-98" value="&lt;font style=&quot;font-size: 17px&quot;&gt;Have&lt;/font&gt;" style="text;html=1;align=center;verticalAlign=middle;resizable=0;points=[];autosize=1;fontSize=15;" vertex="1" parent="WIyWlLk6GJQsqaUBKTNV-1">
          <mxGeometry x="65" y="320" width="60" height="20" as="geometry" />
        </mxCell>
        <mxCell id="NJ1YffycrJ7vE85gbGto-99" value="" style="endArrow=none;html=1;strokeWidth=1;fontSize=15;entryX=-0.014;entryY=0.154;entryDx=0;entryDy=0;entryPerimeter=0;edgeStyle=elbowEdgeStyle;" edge="1" parent="WIyWlLk6GJQsqaUBKTNV-1" source="NJ1YffycrJ7vE85gbGto-48" target="NJ1YffycrJ7vE85gbGto-56">
          <mxGeometry width="50" height="50" relative="1" as="geometry">
            <mxPoint x="320" y="670" as="sourcePoint" />
            <mxPoint x="370" y="620" as="targetPoint" />
          </mxGeometry>
        </mxCell>
        <mxCell id="NJ1YffycrJ7vE85gbGto-100" value="&lt;font style=&quot;font-size: 17px&quot;&gt;Manage&lt;/font&gt;" style="edgeLabel;html=1;align=center;verticalAlign=middle;resizable=0;points=[];fontSize=15;" vertex="1" connectable="0" parent="NJ1YffycrJ7vE85gbGto-99">
          <mxGeometry x="0.055" y="1" relative="1" as="geometry">
            <mxPoint y="-20" as="offset" />
          </mxGeometry>
        </mxCell>
        <mxCell id="NJ1YffycrJ7vE85gbGto-102" value="&lt;font style=&quot;font-size: 17px&quot;&gt;0..1&lt;/font&gt;" style="edgeLabel;html=1;align=center;verticalAlign=middle;resizable=0;points=[];fontSize=15;" vertex="1" connectable="0" parent="NJ1YffycrJ7vE85gbGto-99">
          <mxGeometry x="-0.9503" y="1" relative="1" as="geometry">
            <mxPoint x="6.25" y="-12" as="offset" />
          </mxGeometry>
        </mxCell>
        <mxCell id="NJ1YffycrJ7vE85gbGto-103" value="&lt;font style=&quot;font-size: 17px&quot;&gt;1..1&lt;/font&gt;" style="edgeLabel;html=1;align=center;verticalAlign=middle;resizable=0;points=[];fontSize=15;" vertex="1" connectable="0" parent="NJ1YffycrJ7vE85gbGto-99">
          <mxGeometry x="0.9359" y="2" relative="1" as="geometry">
            <mxPoint y="-16" as="offset" />
          </mxGeometry>
        </mxCell>
        <mxCell id="NJ1YffycrJ7vE85gbGto-51" value="CasualTemporary" style="swimlane;fontStyle=0;childLayout=stackLayout;horizontal=1;startSize=26;fillColor=none;horizontalStack=0;resizeParent=1;resizeParentMax=0;resizeLast=0;collapsible=1;marginBottom=0;fontSize=15;" vertex="1" parent="WIyWlLk6GJQsqaUBKTNV-1">
          <mxGeometry x="850" y="618" width="150" height="60" as="geometry" />
        </mxCell>
        <mxCell id="NJ1YffycrJ7vE85gbGto-52" value="hourlySalary" style="text;strokeColor=none;fillColor=none;align=left;verticalAlign=top;spacingLeft=4;spacingRight=4;overflow=hidden;rotatable=0;points=[[0,0.5],[1,0.5]];portConstraint=eastwest;fontSize=15;" vertex="1" parent="NJ1YffycrJ7vE85gbGto-51">
          <mxGeometry y="26" width="150" height="34" as="geometry" />
        </mxCell>
        <mxCell id="NJ1YffycrJ7vE85gbGto-104" value="" style="endArrow=none;html=1;strokeWidth=1;fontSize=15;exitX=1.021;exitY=0.12;exitDx=0;exitDy=0;exitPerimeter=0;edgeStyle=orthogonalEdgeStyle;elbow=vertical;entryX=0.45;entryY=1.029;entryDx=0;entryDy=0;entryPerimeter=0;" edge="1" parent="WIyWlLk6GJQsqaUBKTNV-1" source="NJ1YffycrJ7vE85gbGto-48" target="NJ1YffycrJ7vE85gbGto-52">
          <mxGeometry width="50" height="50" relative="1" as="geometry">
            <mxPoint x="777" y="728" as="sourcePoint" />
            <mxPoint x="910" y="690" as="targetPoint" />
          </mxGeometry>
        </mxCell>
        <mxCell id="NJ1YffycrJ7vE85gbGto-105" value="&lt;font style=&quot;font-size: 17px&quot;&gt;Support&lt;/font&gt;" style="edgeLabel;html=1;align=center;verticalAlign=middle;resizable=0;points=[];fontSize=15;" vertex="1" connectable="0" parent="NJ1YffycrJ7vE85gbGto-104">
          <mxGeometry x="0.1154" y="2" relative="1" as="geometry">
            <mxPoint as="offset" />
          </mxGeometry>
        </mxCell>
        <mxCell id="NJ1YffycrJ7vE85gbGto-106" value="&lt;font style=&quot;font-size: 17px&quot;&gt;0..*&lt;/font&gt;" style="edgeLabel;html=1;align=center;verticalAlign=middle;resizable=0;points=[];fontSize=15;" vertex="1" connectable="0" parent="NJ1YffycrJ7vE85gbGto-104">
          <mxGeometry x="-0.987" relative="1" as="geometry">
            <mxPoint x="12.06" y="-19.04" as="offset" />
          </mxGeometry>
        </mxCell>
        <mxCell id="NJ1YffycrJ7vE85gbGto-107" value="&lt;font style=&quot;font-size: 17px&quot;&gt;0..*&lt;/font&gt;" style="edgeLabel;html=1;align=center;verticalAlign=middle;resizable=0;points=[];fontSize=15;" vertex="1" connectable="0" parent="NJ1YffycrJ7vE85gbGto-104">
          <mxGeometry x="0.9743" y="-2" relative="1" as="geometry">
            <mxPoint x="15" as="offset" />
          </mxGeometry>
        </mxCell>
        <mxCell id="NJ1YffycrJ7vE85gbGto-108" value="" style="endArrow=none;html=1;strokeWidth=1;fontSize=15;exitX=0.007;exitY=0.225;exitDx=0;exitDy=0;exitPerimeter=0;edgeStyle=elbowEdgeStyle;" edge="1" parent="WIyWlLk6GJQsqaUBKTNV-1" source="NJ1YffycrJ7vE85gbGto-48">
          <mxGeometry width="50" height="50" relative="1" as="geometry">
            <mxPoint y="188" as="sourcePoint" />
            <mxPoint x="50" y="138" as="targetPoint" />
            <Array as="points">
              <mxPoint x="-30" y="440" />
            </Array>
          </mxGeometry>
        </mxCell>
        <mxCell id="NJ1YffycrJ7vE85gbGto-110" value="&lt;font style=&quot;font-size: 17px&quot;&gt;Hold&lt;/font&gt;" style="edgeLabel;html=1;align=center;verticalAlign=middle;resizable=0;points=[];fontSize=15;" vertex="1" connectable="0" parent="NJ1YffycrJ7vE85gbGto-108">
          <mxGeometry x="-0.0384" y="3" relative="1" as="geometry">
            <mxPoint as="offset" />
          </mxGeometry>
        </mxCell>
        <mxCell id="NJ1YffycrJ7vE85gbGto-111" value="&lt;font style=&quot;font-size: 17px&quot;&gt;0..*&lt;/font&gt;" style="edgeLabel;html=1;align=center;verticalAlign=middle;resizable=0;points=[];fontSize=15;" vertex="1" connectable="0" parent="NJ1YffycrJ7vE85gbGto-108">
          <mxGeometry x="-0.9155" y="2" relative="1" as="geometry">
            <mxPoint x="11.02" y="-15.95" as="offset" />
          </mxGeometry>
        </mxCell>
        <mxCell id="NJ1YffycrJ7vE85gbGto-112" value="&lt;font style=&quot;font-size: 17px&quot;&gt;1..1&lt;/font&gt;" style="edgeLabel;html=1;align=center;verticalAlign=middle;resizable=0;points=[];fontSize=15;" vertex="1" connectable="0" parent="NJ1YffycrJ7vE85gbGto-108">
          <mxGeometry x="0.9498" y="-1" relative="1" as="geometry">
            <mxPoint y="-19" as="offset" />
          </mxGeometry>
        </mxCell>
        <mxCell id="NJ1YffycrJ7vE85gbGto-79" value="" style="swimlane;fontStyle=0;childLayout=stackLayout;horizontal=1;startSize=26;fillColor=none;horizontalStack=0;resizeParent=1;resizeParentMax=0;resizeLast=0;collapsible=1;marginBottom=0;fontSize=15;" vertex="1" parent="WIyWlLk6GJQsqaUBKTNV-1">
          <mxGeometry x="330" y="500" width="140" height="104" as="geometry" />
        </mxCell>
        <mxCell id="NJ1YffycrJ7vE85gbGto-80" value="DateBorrow" style="text;strokeColor=none;fillColor=none;align=left;verticalAlign=top;spacingLeft=4;spacingRight=4;overflow=hidden;rotatable=0;points=[[0,0.5],[1,0.5]];portConstraint=eastwest;fontSize=15;" vertex="1" parent="NJ1YffycrJ7vE85gbGto-79">
          <mxGeometry y="26" width="140" height="26" as="geometry" />
        </mxCell>
        <mxCell id="NJ1YffycrJ7vE85gbGto-81" value="DateReturn" style="text;strokeColor=none;fillColor=none;align=left;verticalAlign=top;spacingLeft=4;spacingRight=4;overflow=hidden;rotatable=0;points=[[0,0.5],[1,0.5]];portConstraint=eastwest;fontSize=15;" vertex="1" parent="NJ1YffycrJ7vE85gbGto-79">
          <mxGeometry y="52" width="140" height="26" as="geometry" />
        </mxCell>
        <mxCell id="NJ1YffycrJ7vE85gbGto-82" value="PersonBorrow" style="text;strokeColor=none;fillColor=none;align=left;verticalAlign=top;spacingLeft=4;spacingRight=4;overflow=hidden;rotatable=0;points=[[0,0.5],[1,0.5]];portConstraint=eastwest;fontSize=15;" vertex="1" parent="NJ1YffycrJ7vE85gbGto-79">
          <mxGeometry y="78" width="140" height="26" as="geometry" />
        </mxCell>
        <mxCell id="NJ1YffycrJ7vE85gbGto-125" value="Roster" style="swimlane;fontStyle=0;childLayout=stackLayout;horizontal=1;startSize=26;fillColor=none;horizontalStack=0;resizeParent=1;resizeParentMax=0;resizeLast=0;collapsible=1;marginBottom=0;fontSize=15;" vertex="1" parent="WIyWlLk6GJQsqaUBKTNV-1">
          <mxGeometry x="350" y="259" width="140" height="160" as="geometry" />
        </mxCell>
        <mxCell id="NJ1YffycrJ7vE85gbGto-126" value="WorkingDate" style="text;strokeColor=none;fillColor=none;align=left;verticalAlign=top;spacingLeft=4;spacingRight=4;overflow=hidden;rotatable=0;points=[[0,0.5],[1,0.5]];portConstraint=eastwest;fontSize=15;" vertex="1" parent="NJ1YffycrJ7vE85gbGto-125">
          <mxGeometry y="26" width="140" height="26" as="geometry" />
        </mxCell>
        <mxCell id="NJ1YffycrJ7vE85gbGto-127" value="WorkingHours&#xa;      Start&#xa;      Finish&#xa;&#xa;WorkingPlace" style="text;strokeColor=none;fillColor=none;align=left;verticalAlign=top;spacingLeft=4;spacingRight=4;overflow=hidden;rotatable=0;points=[[0,0.5],[1,0.5]];portConstraint=eastwest;fontSize=15;" vertex="1" parent="NJ1YffycrJ7vE85gbGto-125">
          <mxGeometry y="52" width="140" height="108" as="geometry" />
        </mxCell>
        <mxCell id="NJ1YffycrJ7vE85gbGto-131" value="" style="endArrow=none;html=1;strokeWidth=1;fontSize=15;entryX=0;entryY=0.5;entryDx=0;entryDy=0;exitX=1;exitY=0.5;exitDx=0;exitDy=0;edgeStyle=orthogonalEdgeStyle;" edge="1" parent="WIyWlLk6GJQsqaUBKTNV-1" source="NJ1YffycrJ7vE85gbGto-127" target="NJ1YffycrJ7vE85gbGto-23">
          <mxGeometry width="50" height="50" relative="1" as="geometry">
            <mxPoint x="440" y="450" as="sourcePoint" />
            <mxPoint x="490" y="400" as="targetPoint" />
          </mxGeometry>
        </mxCell>
        <mxCell id="NJ1YffycrJ7vE85gbGto-133" value="&lt;font style=&quot;font-size: 17px&quot;&gt;Hold&lt;/font&gt;" style="edgeLabel;html=1;align=center;verticalAlign=middle;resizable=0;points=[];fontSize=15;" vertex="1" connectable="0" parent="NJ1YffycrJ7vE85gbGto-131">
          <mxGeometry x="0.6162" y="1" relative="1" as="geometry">
            <mxPoint x="-33" y="-38" as="offset" />
          </mxGeometry>
        </mxCell>
        <mxCell id="NJ1YffycrJ7vE85gbGto-134" value="&lt;font style=&quot;font-size: 17px&quot;&gt;0..1&lt;/font&gt;" style="edgeLabel;html=1;align=center;verticalAlign=middle;resizable=0;points=[];fontSize=15;" vertex="1" connectable="0" parent="NJ1YffycrJ7vE85gbGto-131">
          <mxGeometry x="-0.8788" relative="1" as="geometry">
            <mxPoint y="-20" as="offset" />
          </mxGeometry>
        </mxCell>
        <mxCell id="NJ1YffycrJ7vE85gbGto-135" value="&lt;font style=&quot;font-size: 17px&quot;&gt;1..1&lt;/font&gt;" style="edgeLabel;html=1;align=center;verticalAlign=middle;resizable=0;points=[];fontSize=15;" vertex="1" connectable="0" parent="NJ1YffycrJ7vE85gbGto-131">
          <mxGeometry x="0.8788" y="-3" relative="1" as="geometry">
            <mxPoint x="-2" y="-20" as="offset" />
          </mxGeometry>
        </mxCell>
        <mxCell id="NJ1YffycrJ7vE85gbGto-132" value="" style="endArrow=none;html=1;strokeWidth=1;fontSize=15;entryX=-0.021;entryY=0.846;entryDx=0;entryDy=0;exitX=1.007;exitY=0.643;exitDx=0;exitDy=0;exitPerimeter=0;entryPerimeter=0;edgeStyle=orthogonalEdgeStyle;" edge="1" parent="WIyWlLk6GJQsqaUBKTNV-1" source="NJ1YffycrJ7vE85gbGto-12" target="NJ1YffycrJ7vE85gbGto-126">
          <mxGeometry width="50" height="50" relative="1" as="geometry">
            <mxPoint x="440" y="450" as="sourcePoint" />
            <mxPoint x="490" y="400" as="targetPoint" />
          </mxGeometry>
        </mxCell>
        <mxCell id="NJ1YffycrJ7vE85gbGto-136" value="&lt;font style=&quot;font-size: 16px&quot;&gt;Organize&lt;/font&gt;" style="edgeLabel;html=1;align=center;verticalAlign=middle;resizable=0;points=[];fontSize=15;" vertex="1" connectable="0" parent="NJ1YffycrJ7vE85gbGto-132">
          <mxGeometry x="-0.0577" y="-2" relative="1" as="geometry">
            <mxPoint x="42" y="-7.98" as="offset" />
          </mxGeometry>
        </mxCell>
        <mxCell id="NJ1YffycrJ7vE85gbGto-137" value="&lt;font style=&quot;font-size: 17px&quot;&gt;0..*&lt;/font&gt;" style="edgeLabel;html=1;align=center;verticalAlign=middle;resizable=0;points=[];fontSize=15;" vertex="1" connectable="0" parent="NJ1YffycrJ7vE85gbGto-132">
          <mxGeometry x="0.8629" y="-1" relative="1" as="geometry">
            <mxPoint y="-18" as="offset" />
          </mxGeometry>
        </mxCell>
        <mxCell id="NJ1YffycrJ7vE85gbGto-138" value="&lt;font style=&quot;font-size: 17px&quot;&gt;1..1&lt;/font&gt;" style="edgeLabel;html=1;align=center;verticalAlign=middle;resizable=0;points=[];fontSize=15;" vertex="1" connectable="0" parent="NJ1YffycrJ7vE85gbGto-132">
          <mxGeometry x="-0.9567" y="3" relative="1" as="geometry">
            <mxPoint x="13.02" y="-12.03" as="offset" />
          </mxGeometry>
        </mxCell>
        <mxCell id="NJ1YffycrJ7vE85gbGto-10" value="Branch" style="swimlane;fontStyle=0;childLayout=stackLayout;horizontal=1;startSize=26;fillColor=none;horizontalStack=0;resizeParent=1;resizeParentMax=0;resizeLast=0;collapsible=1;marginBottom=0;fontSize=15;" vertex="1" parent="WIyWlLk6GJQsqaUBKTNV-1">
          <mxGeometry x="50" y="-31" width="140" height="320" as="geometry" />
        </mxCell>
        <mxCell id="NJ1YffycrJ7vE85gbGto-11" value="BranchID {PK}" style="text;strokeColor=none;fillColor=none;align=left;verticalAlign=top;spacingLeft=4;spacingRight=4;overflow=hidden;rotatable=0;points=[[0,0.5],[1,0.5]];portConstraint=eastwest;fontSize=15;" vertex="1" parent="NJ1YffycrJ7vE85gbGto-10">
          <mxGeometry y="26" width="140" height="26" as="geometry" />
        </mxCell>
        <mxCell id="NJ1YffycrJ7vE85gbGto-12" value="BranchName&#xa;&#xa;BranchAddress&#xa;&#xa;NumberOfEmployee&#xa;&#xa;Space&#xa;     AvailableSpace&#xa;     Cost&#xa;&#xa;Opening&#xa;     Date&#xa;     OpeningHours&#xa;     ClosingHours &#xa;&#xa;&#xa;          &#xa;&#xa;" style="text;strokeColor=none;fillColor=none;align=left;verticalAlign=top;spacingLeft=4;spacingRight=4;overflow=hidden;rotatable=0;points=[[0,0.5],[1,0.5]];portConstraint=eastwest;fontSize=15;" vertex="1" parent="NJ1YffycrJ7vE85gbGto-10">
          <mxGeometry y="52" width="140" height="268" as="geometry" />
        </mxCell>
        <mxCell id="NJ1YffycrJ7vE85gbGto-14" value="Collection" style="swimlane;fontStyle=0;childLayout=stackLayout;horizontal=1;startSize=26;fillColor=none;horizontalStack=0;resizeParent=1;resizeParentMax=0;resizeLast=0;collapsible=1;marginBottom=0;fontSize=15;" vertex="1" parent="WIyWlLk6GJQsqaUBKTNV-1">
          <mxGeometry x="650" y="109" width="140" height="180" as="geometry" />
        </mxCell>
        <mxCell id="NJ1YffycrJ7vE85gbGto-15" value="CollectionID {PK}" style="text;strokeColor=none;fillColor=none;align=left;verticalAlign=top;spacingLeft=4;spacingRight=4;overflow=hidden;rotatable=0;points=[[0,0.5],[1,0.5]];portConstraint=eastwest;fontSize=15;" vertex="1" parent="NJ1YffycrJ7vE85gbGto-14">
          <mxGeometry y="26" width="140" height="26" as="geometry" />
        </mxCell>
        <mxCell id="NJ1YffycrJ7vE85gbGto-16" value="Type" style="text;strokeColor=none;fillColor=none;align=left;verticalAlign=top;spacingLeft=4;spacingRight=4;overflow=hidden;rotatable=0;points=[[0,0.5],[1,0.5]];portConstraint=eastwest;fontSize=15;" vertex="1" parent="NJ1YffycrJ7vE85gbGto-14">
          <mxGeometry y="52" width="140" height="26" as="geometry" />
        </mxCell>
        <mxCell id="NJ1YffycrJ7vE85gbGto-17" value="Cost&#xa;&#xa;Provenance&#xa;&#xa;Availability" style="text;strokeColor=none;fillColor=none;align=left;verticalAlign=top;spacingLeft=4;spacingRight=4;overflow=hidden;rotatable=0;points=[[0,0.5],[1,0.5]];portConstraint=eastwest;fontSize=15;" vertex="1" parent="NJ1YffycrJ7vE85gbGto-14">
          <mxGeometry y="78" width="140" height="102" as="geometry" />
        </mxCell>
        <mxCell id="NJ1YffycrJ7vE85gbGto-18" value="Member" style="swimlane;fontStyle=0;childLayout=stackLayout;horizontal=1;startSize=26;fillColor=none;horizontalStack=0;resizeParent=1;resizeParentMax=0;resizeLast=0;collapsible=1;marginBottom=0;fontSize=15;" vertex="1" parent="WIyWlLk6GJQsqaUBKTNV-1">
          <mxGeometry x="40" y="378" width="140" height="230" as="geometry" />
        </mxCell>
        <mxCell id="NJ1YffycrJ7vE85gbGto-19" value="MemberID {PK}" style="text;strokeColor=none;fillColor=none;align=left;verticalAlign=top;spacingLeft=4;spacingRight=4;overflow=hidden;rotatable=0;points=[[0,0.5],[1,0.5]];portConstraint=eastwest;fontSize=15;" vertex="1" parent="NJ1YffycrJ7vE85gbGto-18">
          <mxGeometry y="26" width="140" height="26" as="geometry" />
        </mxCell>
        <mxCell id="NJ1YffycrJ7vE85gbGto-20" value="Name&#xa;   fName&#xa;   lName&#xa;&#xa;DoB&#xa;&#xa;Gender&#xa;&#xa;MembershipExpire" style="text;strokeColor=none;fillColor=none;align=left;verticalAlign=top;spacingLeft=4;spacingRight=4;overflow=hidden;rotatable=0;points=[[0,0.5],[1,0.5]];portConstraint=eastwest;fontSize=15;" vertex="1" parent="NJ1YffycrJ7vE85gbGto-18">
          <mxGeometry y="52" width="140" height="178" as="geometry" />
        </mxCell>
        <mxCell id="NJ1YffycrJ7vE85gbGto-45" value="Event" style="swimlane;fontStyle=0;childLayout=stackLayout;horizontal=1;startSize=26;fillColor=none;horizontalStack=0;resizeParent=1;resizeParentMax=0;resizeLast=0;collapsible=1;marginBottom=0;fontSize=15;" vertex="1" parent="WIyWlLk6GJQsqaUBKTNV-1">
          <mxGeometry x="40" y="640" width="140" height="230" as="geometry" />
        </mxCell>
        <mxCell id="NJ1YffycrJ7vE85gbGto-46" value="EventID {PK}" style="text;strokeColor=none;fillColor=none;align=left;verticalAlign=top;spacingLeft=4;spacingRight=4;overflow=hidden;rotatable=0;points=[[0,0.5],[1,0.5]];portConstraint=eastwest;fontSize=15;" vertex="1" parent="NJ1YffycrJ7vE85gbGto-45">
          <mxGeometry y="26" width="140" height="26" as="geometry" />
        </mxCell>
        <mxCell id="NJ1YffycrJ7vE85gbGto-47" value="PercentOnSelling" style="text;strokeColor=none;fillColor=none;align=left;verticalAlign=top;spacingLeft=4;spacingRight=4;overflow=hidden;rotatable=0;points=[[0,0.5],[1,0.5]];portConstraint=eastwest;fontSize=15;" vertex="1" parent="NJ1YffycrJ7vE85gbGto-45">
          <mxGeometry y="52" width="140" height="26" as="geometry" />
        </mxCell>
        <mxCell id="NJ1YffycrJ7vE85gbGto-48" value="SalesQuantity&#xa;&#xa;PaidDate&#xa;&#xa;Cost&#xa;   InfrastureCost&#xa;   StaffCost&#xa;&#xa;" style="text;strokeColor=none;fillColor=none;align=left;verticalAlign=top;spacingLeft=4;spacingRight=4;overflow=hidden;rotatable=0;points=[[0,0.5],[1,0.5]];portConstraint=eastwest;fontSize=15;" vertex="1" parent="NJ1YffycrJ7vE85gbGto-45">
          <mxGeometry y="78" width="140" height="152" as="geometry" />
        </mxCell>
        <mxCell id="NJ1YffycrJ7vE85gbGto-22" value="Employee" style="swimlane;fontStyle=0;childLayout=stackLayout;horizontal=1;startSize=26;fillColor=none;horizontalStack=0;resizeParent=1;resizeParentMax=0;resizeLast=0;collapsible=1;marginBottom=0;fontSize=15;" vertex="1" parent="WIyWlLk6GJQsqaUBKTNV-1">
          <mxGeometry x="710" y="360" width="140" height="150" as="geometry" />
        </mxCell>
        <mxCell id="NJ1YffycrJ7vE85gbGto-23" value="EmployeeID {PK}" style="text;strokeColor=none;fillColor=none;align=left;verticalAlign=top;spacingLeft=4;spacingRight=4;overflow=hidden;rotatable=0;points=[[0,0.5],[1,0.5]];portConstraint=eastwest;fontSize=15;" vertex="1" parent="NJ1YffycrJ7vE85gbGto-22">
          <mxGeometry y="26" width="140" height="26" as="geometry" />
        </mxCell>
        <mxCell id="NJ1YffycrJ7vE85gbGto-24" value="Role" style="text;strokeColor=none;fillColor=none;align=left;verticalAlign=top;spacingLeft=4;spacingRight=4;overflow=hidden;rotatable=0;points=[[0,0.5],[1,0.5]];portConstraint=eastwest;fontSize=15;" vertex="1" parent="NJ1YffycrJ7vE85gbGto-22">
          <mxGeometry y="52" width="140" height="26" as="geometry" />
        </mxCell>
        <mxCell id="NJ1YffycrJ7vE85gbGto-25" value="Name&#xa;&#xa;SupervisorStaffNo&#xa;" style="text;strokeColor=none;fillColor=none;align=left;verticalAlign=top;spacingLeft=4;spacingRight=4;overflow=hidden;rotatable=0;points=[[0,0.5],[1,0.5]];portConstraint=eastwest;fontSize=15;" vertex="1" parent="NJ1YffycrJ7vE85gbGto-22">
          <mxGeometry y="78" width="140" height="72" as="geometry" />
        </mxCell>
        <mxCell id="NJ1YffycrJ7vE85gbGto-140" value="" style="endArrow=none;html=1;strokeWidth=1;fontSize=15;exitX=1;exitY=0.5;exitDx=0;exitDy=0;edgeStyle=elbowEdgeStyle;elbow=horizontal;entryX=1;entryY=0.5;entryDx=0;entryDy=0;" edge="1" parent="NJ1YffycrJ7vE85gbGto-22" source="NJ1YffycrJ7vE85gbGto-25" target="NJ1YffycrJ7vE85gbGto-23">
          <mxGeometry width="50" height="50" relative="1" as="geometry">
            <mxPoint x="-250" y="62" as="sourcePoint" />
            <mxPoint x="150" y="39" as="targetPoint" />
            <Array as="points">
              <mxPoint x="190" y="32" />
            </Array>
          </mxGeometry>
        </mxCell>
        <mxCell id="NJ1YffycrJ7vE85gbGto-141" value="Supervise" style="edgeLabel;html=1;align=center;verticalAlign=middle;resizable=0;points=[];fontSize=17;" vertex="1" connectable="0" parent="NJ1YffycrJ7vE85gbGto-140">
          <mxGeometry x="0.3265" y="4" relative="1" as="geometry">
            <mxPoint x="44" y="23.5" as="offset" />
          </mxGeometry>
        </mxCell>
        <mxCell id="NJ1YffycrJ7vE85gbGto-142" value="0..*" style="edgeLabel;html=1;align=center;verticalAlign=middle;resizable=0;points=[];fontSize=17;" vertex="1" connectable="0" parent="NJ1YffycrJ7vE85gbGto-140">
          <mxGeometry x="-0.8824" relative="1" as="geometry">
            <mxPoint x="10" y="13" as="offset" />
          </mxGeometry>
        </mxCell>
        <mxCell id="NJ1YffycrJ7vE85gbGto-143" value="1..1" style="edgeLabel;html=1;align=center;verticalAlign=middle;resizable=0;points=[];fontSize=17;" vertex="1" connectable="0" parent="NJ1YffycrJ7vE85gbGto-140">
          <mxGeometry x="0.75" relative="1" as="geometry">
            <mxPoint y="-17" as="offset" />
          </mxGeometry>
        </mxCell>
        <mxCell id="NJ1YffycrJ7vE85gbGto-63" value="Book" style="swimlane;fontStyle=0;childLayout=stackLayout;horizontal=1;startSize=26;fillColor=none;horizontalStack=0;resizeParent=1;resizeParentMax=0;resizeLast=0;collapsible=1;marginBottom=0;fontSize=15;" vertex="1" parent="WIyWlLk6GJQsqaUBKTNV-1">
          <mxGeometry x="510" y="-110" width="140" height="110" as="geometry" />
        </mxCell>
        <mxCell id="NJ1YffycrJ7vE85gbGto-64" value="Authorship" style="text;strokeColor=none;fillColor=none;align=left;verticalAlign=top;spacingLeft=4;spacingRight=4;overflow=hidden;rotatable=0;points=[[0,0.5],[1,0.5]];portConstraint=eastwest;fontSize=15;" vertex="1" parent="NJ1YffycrJ7vE85gbGto-63">
          <mxGeometry y="26" width="140" height="26" as="geometry" />
        </mxCell>
        <mxCell id="NJ1YffycrJ7vE85gbGto-65" value="Publisher" style="text;strokeColor=none;fillColor=none;align=left;verticalAlign=top;spacingLeft=4;spacingRight=4;overflow=hidden;rotatable=0;points=[[0,0.5],[1,0.5]];portConstraint=eastwest;fontSize=15;" vertex="1" parent="NJ1YffycrJ7vE85gbGto-63">
          <mxGeometry y="52" width="140" height="58" as="geometry" />
        </mxCell>
        <mxCell id="NJ1YffycrJ7vE85gbGto-67" value="Movie" style="swimlane;fontStyle=0;childLayout=stackLayout;horizontal=1;startSize=26;fillColor=none;horizontalStack=0;resizeParent=1;resizeParentMax=0;resizeLast=0;collapsible=1;marginBottom=0;fontSize=15;" vertex="1" parent="WIyWlLk6GJQsqaUBKTNV-1">
          <mxGeometry x="790" y="-104" width="140" height="104" as="geometry" />
        </mxCell>
        <mxCell id="NJ1YffycrJ7vE85gbGto-68" value="Producer" style="text;strokeColor=none;fillColor=none;align=left;verticalAlign=top;spacingLeft=4;spacingRight=4;overflow=hidden;rotatable=0;points=[[0,0.5],[1,0.5]];portConstraint=eastwest;fontSize=15;" vertex="1" parent="NJ1YffycrJ7vE85gbGto-67">
          <mxGeometry y="26" width="140" height="26" as="geometry" />
        </mxCell>
        <mxCell id="NJ1YffycrJ7vE85gbGto-69" value="Editor" style="text;strokeColor=none;fillColor=none;align=left;verticalAlign=top;spacingLeft=4;spacingRight=4;overflow=hidden;rotatable=0;points=[[0,0.5],[1,0.5]];portConstraint=eastwest;fontSize=15;" vertex="1" parent="NJ1YffycrJ7vE85gbGto-67">
          <mxGeometry y="52" width="140" height="26" as="geometry" />
        </mxCell>
        <mxCell id="NJ1YffycrJ7vE85gbGto-70" value="ProminentActors" style="text;strokeColor=none;fillColor=none;align=left;verticalAlign=top;spacingLeft=4;spacingRight=4;overflow=hidden;rotatable=0;points=[[0,0.5],[1,0.5]];portConstraint=eastwest;fontSize=15;" vertex="1" parent="NJ1YffycrJ7vE85gbGto-67">
          <mxGeometry y="78" width="140" height="26" as="geometry" />
        </mxCell>
      </root>
    </mxGraphModel>
  </diagram>
</mxfile>
